<svg width="67" height="58" viewBox="0 0 67 58" fill="none" xmlns="http://www.w3.org/2000/svg">
<path d="M12.5303 36.1624L30.5029 36.1633H46.2148C50.7984 36.1634 53.6893 41.0955 51.4502 45.095L47.0625 52.9309C46.0015 54.8261 43.9991 56.0002 41.8271 56.0002H16.165C13.829 56.0001 11.7057 54.6438 10.7227 52.5247L7.08691 44.6868C5.24249 40.71 8.14652 36.1621 12.5303 36.1624Z" stroke="#F4F4E8" stroke-width="4"/>
<path d="M44.0199 10.114C44.4222 8.81756 45.2867 7.94858 46.455 7.70671L54.9771 5.94339C56.3091 5.66786 57.6596 6.32386 58.2679 7.54046L60.7276 12.4589C61.3906 13.7849 60.9856 15.3964 59.7745 16.2514L52.4325 21.433C51.4418 22.1323 50.1956 22.1594 48.9433 21.5258C47.6633 20.8781 46.5934 19.6232 46.2154 18.1703C46.0755 17.6327 45.9104 17.1014 45.7136 16.5926C45.404 15.7919 44.9873 15.0029 44.5254 14.2533C43.7625 13.0156 43.6091 11.4384 44.0199 10.114Z" stroke="#F4F4E8" stroke-width="4"/>
<path d="M41.6907 10.6443C42.7885 10.5223 43.5796 9.5335 43.4577 8.43568C43.3357 7.33786 42.3469 6.54676 41.2491 6.6687L41.4699 8.65648L41.6907 10.6443ZM34.607 15.1384L32.607 15.1384L34.607 15.1384ZM36.5132 10.1816L37.7131 11.7817L37.7131 11.7817L36.5132 10.1816ZM38.0389 22.002C39.4303 20.5654 39.4307 20.5657 39.431 20.5661C39.4311 20.5662 39.4315 20.5665 39.4317 20.5667C39.4321 20.5671 39.4324 20.5674 39.4327 20.5677C39.4333 20.5682 39.4337 20.5686 39.4339 20.5688C39.4343 20.5692 39.4339 20.5688 39.4327 20.5676C39.4303 20.5653 39.4249 20.5599 39.4166 20.5517C39.4001 20.5351 39.3722 20.5068 39.3346 20.4676C39.2592 20.389 39.1456 20.2674 39.0064 20.1087C38.7263 19.7893 38.3526 19.3306 37.9815 18.78C37.2014 17.6221 36.6069 16.3124 36.607 15.1385L34.607 15.1384L32.607 15.1384C32.6069 17.5038 33.7284 19.6259 34.6642 21.015C35.1512 21.7378 35.6354 22.3314 35.9989 22.7459C36.1815 22.9541 36.336 23.1198 36.4483 23.2369C36.5045 23.2955 36.5503 23.3421 36.584 23.3759C36.6009 23.3928 36.6148 23.4066 36.6254 23.4171C36.6307 23.4223 36.6352 23.4267 36.6389 23.4303C36.6408 23.4321 36.6424 23.4337 36.6438 23.4351C36.6445 23.4358 36.6452 23.4364 36.6458 23.437C36.6461 23.4373 36.6465 23.4377 36.6466 23.4378C36.647 23.4382 36.6474 23.4386 38.0389 22.002ZM34.607 15.1384L36.607 15.1385C36.607 13.3914 37.0083 12.3102 37.7131 11.7817L36.5132 10.1816L35.3134 8.58147C33.0328 10.2916 32.607 13.0722 32.607 15.1384L34.607 15.1384ZM36.5132 10.1816L37.7131 11.7817C38.1068 11.4865 38.9728 11.1753 40.0069 10.9403C40.4749 10.8339 40.9042 10.7587 41.2166 10.7103C41.3719 10.6862 41.496 10.669 41.5788 10.6582C41.6201 10.6528 41.651 10.649 41.6701 10.6467C41.6796 10.6455 41.6862 10.6448 41.6897 10.6444C41.6915 10.6442 41.6924 10.6441 41.6926 10.644C41.6927 10.644 41.6926 10.644 41.6923 10.6441C41.6921 10.6441 41.6919 10.6441 41.6916 10.6441C41.6915 10.6442 41.6913 10.6442 41.6912 10.6442C41.691 10.6442 41.6907 10.6443 41.4699 8.65648C41.2491 6.6687 41.2488 6.66873 41.2485 6.66876C41.2484 6.66878 41.2481 6.66881 41.2479 6.66884C41.2474 6.66889 41.2469 6.66895 41.2463 6.66901C41.2451 6.66914 41.2438 6.6693 41.2422 6.66948C41.2391 6.66983 41.2351 6.67029 41.2303 6.67084C41.2207 6.67195 41.2079 6.67346 41.1919 6.67538C41.16 6.67922 41.1157 6.68471 41.0602 6.69196C40.9494 6.70645 40.7935 6.72803 40.6033 6.75754C40.2248 6.81627 39.701 6.90783 39.1205 7.03976C38.0577 7.28129 36.4453 7.73271 35.3134 8.58147L36.5132 10.1816Z" fill="#F4F4E8"/>
<path d="M41.9683 28.4543C41.9683 28.4543 43.9779 29.0425 45.0069 28.4616C45.9344 27.9379 46.1435 27.2505 46.5213 26.207C47.2286 24.2532 46.6312 22.9116 46.1279 20.891C45.5988 18.7669 44.8356 17.614 43.8374 15.6606C42.869 13.7656 42.5024 12.4123 40.7878 11.1362C39.5052 10.1817 36.9968 9.5766 36.9968 9.5766" stroke="#F4F4E8" stroke-width="4"/>
<line x1="45.4514" y1="29.0056" x2="61.4654" y2="16.8044" stroke="#F4F4E8"/>
<line x1="45.4514" y1="28.243" x2="61.4654" y2="16.0418" stroke="#F4F4E8"/>
<line x1="45.4514" y1="27.4805" x2="61.4654" y2="15.2793" stroke="#F4F4E8"/>
<line x1="38.7698" y1="8.32877" x2="54.0213" y2="4.5159" stroke="#F4F4E8"/>
<path d="M32.5339 34.4596C32.5339 34.4596 36.0498 22.633 41.5601 17.5835C47.0883 12.5176 59.224 10.0572 59.224 10.0572" stroke="#F4F4E8" stroke-width="3"/>
<path d="M41.5619 34.6871C41.5619 34.6871 41.6034 30.0645 41.9418 27.8782C42.2546 25.8568 45.7517 21.7775 45.7517 21.7775" stroke="#F4F4E8" stroke-width="3"/>
<rect x="2.07034" y="6.07166" width="3.82605" height="16.9477" rx="1.91303" transform="rotate(-32.413 2.07034 6.07166)" stroke="#F4F4E8" stroke-width="3"/>
<path d="M13.4233 20.312C13.8397 19.9882 14.4419 20.0735 14.7518 20.5004L22.8192 31.6193C24.0597 33.3293 22.8881 35.7314 20.7768 35.8069C19.664 35.8466 18.6462 35.1836 18.2325 34.1498L13.1299 21.3948C12.9757 21.0089 13.0953 20.5673 13.4233 20.312Z" stroke="#F4F4E8" stroke-width="3"/>
<path d="M13.5585 20.5527C15.3658 19.5418 17.6154 19.7864 19.1634 21.1618L21.0472 22.8368L24.3969 26.7079C24.6042 26.9475 24.7903 27.2049 24.9533 27.4767L26.6394 30.2871C26.7705 30.5056 26.8752 30.739 26.9512 30.9822C27.5617 32.9355 26.217 34.9551 24.1793 35.1448L18.3555 35.6868C16.0969 35.897 13.9411 34.6986 12.9267 32.6697L12.1637 31.1437C11.8895 30.5954 11.7091 30.005 11.6296 29.3971L11.1107 25.428C10.8529 23.4552 11.8221 21.524 13.5585 20.5527Z" stroke="#F4F4E8" stroke-width="3"/>
</svg>
