<svg width="70" height="58" viewBox="0 0 70 58" fill="none" xmlns="http://www.w3.org/2000/svg">
<path d="M12.3604 2.35938C19.0707 1.61389 26.5848 1.83233 31.4648 4.9375C34.4437 6.83286 38.0765 7.67845 41.6982 7.95508C45.3369 8.23295 49.1107 7.9474 52.4902 7.45898C55.8775 6.96945 58.9218 6.26825 61.1172 5.69141C61.4571 5.60209 61.777 5.515 62.0752 5.43262V54.7842C61.6082 54.7742 61.0695 54.7618 60.4697 54.7432C58.2333 54.6735 55.1554 54.5349 51.7881 54.2568C44.9412 53.6915 37.278 52.5768 32.8936 50.5C29.6313 48.9548 25.8361 48.5541 22.1191 48.7314C18.3853 48.9096 14.5847 49.6782 11.209 50.6025C7.82571 51.529 4.81736 52.6268 2.65723 53.4912C2.42867 53.5827 2.20939 53.6719 2 53.7578V4.27539C2.5331 4.13727 3.20166 3.97021 3.98145 3.79199C6.11937 3.30339 9.07667 2.72419 12.3604 2.35938Z" stroke="#F4F4E8" stroke-width="4"/>
<line x1="33.0366" y1="5.9386" x2="33.0366" y2="49.9904" stroke="#F4F4E8" stroke-width="4"/>
<line x1="16.0188" y1="56" x2="65.0765" y2="56" stroke="#F4F4E8" stroke-width="4"/>
<path d="M10.0117 19.9552C10.0117 19.9552 15.676 18.954 19.0223 18.954C22.3686 18.954 27.0317 19.9552 27.0317 19.9552" stroke="#F4F4E8" stroke-width="4"/>
<path d="M10.0117 34.9729C10.0117 34.9729 15.676 33.9717 19.0223 33.9717C22.3686 33.9717 27.0317 34.9729 27.0317 34.9729" stroke="#F4F4E8" stroke-width="4"/>
<path d="M39.0459 36.9753C39.0459 36.9753 44.7102 37.9765 48.0565 37.9765C51.4028 37.9765 56.0659 36.9753 56.0659 36.9753" stroke="#F4F4E8" stroke-width="4"/>
<path d="M39.0459 22.9586C39.0459 22.9586 44.7102 23.9598 48.0565 23.9598C51.4028 23.9598 56.0659 22.9586 56.0659 22.9586" stroke="#F4F4E8" stroke-width="4"/>
<line x1="14.0188" y1="58" x2="14.0188" y2="50.9918" stroke="#F4F4E8" stroke-width="4"/>
<line x1="61.0718" y1="9.94568" x2="69.0812" y2="9.94568" stroke="#F4F4E8" stroke-width="4"/>
<line x1="67.0813" y1="58" x2="67.0813" y2="7.9411" stroke="#F4F4E8" stroke-width="4"/>
</svg>
