<svg width="60" height="60" viewBox="0 0 60 60" fill="none" xmlns="http://www.w3.org/2000/svg">
<rect x="9.90186" y="46.9071" width="39.3785" height="11.0882" rx="5.54409" stroke="#F4F4E8" stroke-width="4"/>
<line x1="9.90186" y1="32.7618" x2="9.90186" y2="51.3941" stroke="#F4F4E8" stroke-width="4" stroke-linecap="round"/>
<path d="M15.918 12.8446C15.918 12.8446 3.65882 11.9016 2.71581 19.9172C1.7728 27.9328 9.78859 32.6482 9.78859 32.6482" stroke="#F4F4E8" stroke-width="4"/>
<path d="M43.2651 12.8446C43.2651 12.8446 56.4673 11.4301 57.4103 19.4457C58.3533 27.4613 49.3907 31.6013 49.3907 31.6013" stroke="#F4F4E8" stroke-width="4"/>
<path d="M14.5034 17.0881C14.5034 17.0881 19.69 1.99995 29.5916 1.99995C39.4932 1.99995 45.1514 17.0881 45.1514 17.0881" stroke="#F4F4E8" stroke-width="4" stroke-linecap="round"/>
<path d="M49.395 31.705V52.4512" stroke="#F4F4E8" stroke-width="4" stroke-linecap="round"/>
<path d="M14.976 28.4036C14.976 28.4036 15.2016 30.3956 16.3931 32.6519C17.366 34.4943 19.9961 36.5865 19.9961 36.5865M29.5914 27.9328L29.5914 35.9484" stroke="#F4F4E8" stroke-width="4" stroke-linecap="round"/>
<path d="M44.3981 27.8617C44.3981 27.8617 44.1725 29.8537 42.981 32.1101C42.0081 33.9525 39.378 36.0447 39.378 36.0447M29.5917 27.862L29.5917 35.8775" stroke="#F4F4E8" stroke-width="4" stroke-linecap="round"/>
</svg>
