<svg width="61" height="58" viewBox="0 0 61 58" fill="none" xmlns="http://www.w3.org/2000/svg">
<path d="M27.082 5.0293C27.8937 1.65685 32.7098 1.65688 33.5215 5.0293C34.8206 10.4282 40.9814 13.057 45.7725 10.2168L46.8193 9.59668C49.5203 7.99593 52.6114 11.1782 50.8066 13.8613C47.6618 18.5369 50.2297 24.9306 55.7559 26.1025C58.8861 26.7663 58.8861 31.2337 55.7559 31.8975C50.2297 33.0694 47.6618 39.4631 50.8066 44.1387C52.6114 46.8218 49.5203 50.0041 46.8193 48.4033L45.7725 47.7832C40.9814 44.943 34.8206 47.5718 33.5215 52.9707C32.7098 56.3431 27.8937 56.3432 27.082 52.9707C25.783 47.5718 19.6221 44.943 14.8311 47.7832L13.7852 48.4033C11.0841 50.0045 7.992 46.8219 9.79688 44.1387C12.9418 39.4631 10.3739 33.0693 4.84766 31.8975C1.71752 31.2336 1.71752 26.7664 4.84766 26.1025C10.3739 24.9307 12.9418 18.5369 9.79688 13.8613C7.99201 11.1781 11.0841 7.99547 13.7852 9.59668L14.8311 10.2168C19.6221 13.057 25.783 10.4282 27.082 5.0293Z" stroke="#F4F4E8" stroke-width="5"/>
<path d="M30.3022 21.6014C35.0629 21.6016 38.7446 25.2433 38.7446 29.5223C38.7446 33.8014 35.0629 37.4431 30.3022 37.4432C25.5414 37.4432 21.8589 33.8015 21.8589 29.5223C21.8589 25.2432 25.5414 21.6014 30.3022 21.6014Z" stroke="#F4F4E8" stroke-width="4"/>
</svg>
